<svg viewBox="0 0 200 200" xmlns="http://www.w3.org/2000/svg">
  <path fill="#92bf33" d="M25.5,-38.2C38.4,-36.7,57.8,-40.7,65.9,-35.2C73.9,-29.7,70.6,-14.9,59.9,-6.2C49.1,2.5,31,5,27.5,18.2C23.9,31.4,34.8,55.3,32.6,58.9C30.5,62.5,15.2,45.8,0.4,45.1C-14.5,44.4,-28.9,59.8,-41.9,62.4C-54.9,65.1,-66.4,55,-64.5,42.5C-62.6,30,-47.2,15,-43.4,2.2C-39.5,-10.6,-47.3,-21.2,-49.3,-33.9C-51.3,-46.5,-47.6,-61.2,-38.4,-64.8C-29.2,-68.5,-14.6,-61,-4.2,-53.8C6.3,-46.6,12.6,-39.7,25.5,-38.2Z" transform="translate(100 100)" />
</svg>